<svg xmlns="http://www.w3.org/2000/svg" width="141.28" height="141.561" viewBox="0 0 141.28 141.561">
  <g id="pro_icn" transform="translate(1 1)">
    <g id="Group_224" data-name="Group 224" transform="translate(0.28)">
      <g id="Group_219" data-name="Group 219">
        <path id="Path_183" data-name="Path 183" d="M23,278v9l-9-9Z" transform="translate(15.263 -221.726)" fill="#ff475a"/>
        <path id="Path_184" data-name="Path 184" d="M39.267,309.522H1V260H30.263v40.518Z" transform="translate(-1 -244.243)" fill="#ff636e"/>
        <path id="Path_185" data-name="Path 185" d="M54.518,256v49.522H14V256Z" transform="translate(15.263 -249.247)" fill="#ff9696"/>
        <rect id="Rectangle_155" data-name="Rectangle 155" width="13" height="9" transform="translate(70 130.561)" fill="#cdd2e1"/>
        <path id="Path_186" data-name="Path 186" d="M45.506,314.159v18.008H32V314.159h6.753s4.5,0,4.5-4.5-4.5-4.5-4.5-4.5,4.5,0,4.5-4.5-4.5-4.5-4.5-4.5,4.1,0,6.753-2.071Z" transform="translate(37.78 -201.61)" fill="#e9edf5"/>
        <path id="Path_187" data-name="Path 187" d="M45.506,253v69.78s-6.753,0-6.753,6.753H32V253Z" transform="translate(37.78 -253)" fill="#e9edf5"/>
        <path id="Path_188" data-name="Path 188" d="M42.506,299s4.5,0,4.5,4.5-4.5,4.5-4.5,4.5h-9a4.515,4.515,0,0,1-4.5-4.5,4.535,4.535,0,0,1,4.5-4.5Z" transform="translate(34.027 -195.455)" fill="#ffbeaa"/>
        <path id="Path_189" data-name="Path 189" d="M39.255,295h4.5s4.5,0,4.5,4.5-4.5,4.5-4.5,4.5H32.5a4.515,4.515,0,0,1-4.5-4.5,4.535,4.535,0,0,1,4.5-4.5Z" transform="translate(32.776 -200.459)" fill="#ffcdbe"/>
        <path id="Path_190" data-name="Path 190" d="M41.757,291h4.5v9H30.5a4.535,4.535,0,0,1-4.5-4.5,4.515,4.515,0,0,1,4.5-4.5H41.757Z" transform="translate(30.274 -205.463)" fill="#ffbeaa"/>
        <path id="Path_191" data-name="Path 191" d="M43.757,287v9H32.5a4.535,4.535,0,0,1-4.5-4.5,4.515,4.515,0,0,1,4.5-4.5H43.757Z" transform="translate(32.776 -210.467)" fill="#ffcdbe"/>
        <path id="Path_192" data-name="Path 192" d="M68.765,290.753v29.263l-6.753,6.753H41.753V306.69C39.1,308.761,35,308.761,35,308.761V290.753C35,284,41.753,284,41.753,284H62.012Z" transform="translate(41.533 -214.22)" fill="#ffcdbe"/>
        <rect id="Rectangle_156" data-name="Rectangle 156" width="12" height="29" transform="translate(128 76.561)" fill="#96e8ff"/>
        <rect id="Rectangle_157" data-name="Rectangle 157" width="18" height="29" transform="translate(110 76.561)" fill="#19cffc"/>
      </g>
      <g id="Group_220" data-name="Group 220" transform="translate(90.084 91.525)">
        <path id="Path_193" data-name="Path 193" d="M41.02,293.66a11.6,11.6,0,0,0,4.164,2.319A10.8,10.8,0,0,1,41.02,293.66Z" transform="translate(-41.02 -293.66)" fill="#ffbeaa"/>
      </g>
      <g id="Group_221" data-name="Group 221" transform="translate(76.533 69.78)">
        <path id="Path_194" data-name="Path 194" d="M39.5,299.757v-9C39.5,284,46.255,284,46.255,284h-4.5S35,284,35,290.753v18.008a14.5,14.5,0,0,0,4.5-.849Z" transform="translate(-35 -284)" fill="#faa68e"/>
      </g>
      <g id="Group_222" data-name="Group 222" transform="translate(9.004 13.506)">
        <rect id="Rectangle_158" data-name="Rectangle 158" width="5" height="4" transform="translate(107.996 70.055)" fill="#cff9ff"/>
        <rect id="Rectangle_159" data-name="Rectangle 159" width="5" height="4" transform="translate(26.996 0.055)" fill="#ffb0b0"/>
        <rect id="Rectangle_160" data-name="Rectangle 160" width="18" height="4" transform="translate(35.996 0.055)" fill="#ffb0b0"/>
        <rect id="Rectangle_161" data-name="Rectangle 161" width="14" height="5" transform="translate(26.996 74.055)" fill="#f5cd62"/>
        <rect id="Rectangle_162" data-name="Rectangle 162" width="12.733" height="4.501" transform="translate(29.922 90.699) rotate(-45)" fill="#f5cd62"/>
        <rect id="Rectangle_163" data-name="Rectangle 163" width="4.501" height="12.733" transform="translate(29.922 62.368) rotate(-45)" fill="#f5cd62"/>
        <path id="Path_195" data-name="Path 195" d="M52,262H47.5v4.5H43V271h4.5v4.5H52V271h4.5v-4.5H52Z" transform="translate(42.537 -255.247)" fill="#19cffc"/>
        <path id="Path_196" data-name="Path 196" d="M66.506,276.5H62V272H57.5v4.5H53V281h4.5v4.5H62V281h4.5Z" transform="translate(55.047 -242.737)" fill="#19cffc"/>
        <path id="Path_197" data-name="Path 197" d="M14,285H9.5v4.5H5V294H9.5v4.5H14V294h4.5v-4.5H14Z" transform="translate(-5 -226.475)" fill="#19cffc"/>
        <rect id="Rectangle_164" data-name="Rectangle 164" width="5" height="11" transform="translate(89.996 25.055)" fill="#4ab8f7"/>
        <rect id="Rectangle_165" data-name="Rectangle 165" width="5" height="5" transform="translate(89.996 40.055)" fill="#1ea1e3"/>
      </g>
      <path id="Path_198" data-name="Path 198" d="M57.008,302.506h-4.5c-.45,0-.878-.023-1.306-.045-.27-.023-.563-.045-.833-.09a13.177,13.177,0,0,1-2.656-.563,11.6,11.6,0,0,1-4.164-2.319c0-.023-.023-.045-.045-.023C39,295.483,39,289,39,289h4.5S43.5,302.506,57.008,302.506Z" transform="translate(46.537 -207.965)" fill="#ffbeaa"/>
      <g id="Group_223" data-name="Group 223" transform="translate(83.286 81.035)">
        <path id="Path_199" data-name="Path 199" d="M65.012,302.506v11.255l-6.753,6.753H38V300.435a5.632,5.632,0,0,0,2.251-4.682V289s0,13.506,13.506,13.506Z" transform="translate(-38 -289)" fill="#faa68e"/>
      </g>
    </g>
    <g id="Group_232" data-name="Group 232">
      <g id="Group_227" data-name="Group 227">
        <g id="Group_225" data-name="Group 225" transform="translate(56.274 69.78)">
          <path id="Path_200" data-name="Path 200" d="M62.012,308.761h-4.5C44,308.761,44,295.255,44,295.255v6.753c0,6.753-9,6.753-9,6.753V290.753C35,284,41.753,284,41.753,284H62.012l6.753,6.753H98.027" transform="translate(-14.741 -284)" fill="none" stroke="#000" stroke-linejoin="round" stroke-width="2"/>
          <path id="Path_201" data-name="Path 201" d="M43.757,287H32.5a4.5,4.5,0,0,0-4.5,4.5h0a4.5,4.5,0,0,0,4.5,4.5H43.757" transform="translate(-23.498 -280.247)" fill="none" stroke="#000" stroke-linejoin="round" stroke-width="2"/>
          <path id="Path_202" data-name="Path 202" d="M41.757,291H30.5a4.5,4.5,0,0,0-4.5,4.5h0a4.5,4.5,0,0,0,4.5,4.5H41.757" transform="translate(-26 -275.243)" fill="none" stroke="#000" stroke-linejoin="round" stroke-width="2"/>
          <path id="Path_203" data-name="Path 203" d="M43.757,304H32.5a4.5,4.5,0,0,1-4.5-4.5h0a4.5,4.5,0,0,1,4.5-4.5H43.757s4.5,0,4.5,4.5S43.757,304,43.757,304Z" transform="translate(-23.498 -270.239)" fill="none" stroke="#000" stroke-linejoin="round" stroke-width="2"/>
          <path id="Path_204" data-name="Path 204" d="M42.506,308h-9a4.5,4.5,0,0,1-4.5-4.5h0a4.5,4.5,0,0,1,4.5-4.5h9s4.5,0,4.5,4.5S42.506,308,42.506,308Z" transform="translate(-22.247 -265.235)" fill="none" stroke="#000" stroke-linejoin="round" stroke-width="2"/>
          <path id="Path_205" data-name="Path 205" d="M38,306.753H58.259L65.012,300H94.274" transform="translate(-10.988 -263.984)" fill="none" stroke="#000" stroke-linejoin="round" stroke-width="2"/>
          <line id="Line_108" data-name="Line 108" y2="29" transform="translate(53.726 6.78)" fill="none" stroke="#000" stroke-linejoin="round" stroke-width="2"/>
          <line id="Line_109" data-name="Line 109" y2="29" transform="translate(71.726 6.78)" fill="none" stroke="#000" stroke-linejoin="round" stroke-width="2"/>
          <line id="Line_110" data-name="Line 110" y2="4" transform="translate(62.726 13.78)" fill="none" stroke="#000" stroke-linejoin="round" stroke-width="2"/>
        </g>
        <g id="Group_226" data-name="Group 226" transform="translate(0 6.753)">
          <rect id="Rectangle_166" data-name="Rectangle 166" width="41" height="50" transform="translate(29 -0.192)" fill="none" stroke="#000" stroke-linejoin="round" stroke-width="2"/>
          <path id="Path_206" data-name="Path 206" d="M14,278l9,9v-9" transform="translate(15.263 -228.478)" fill="none" stroke="#000" stroke-linejoin="round" stroke-width="2"/>
          <path id="Path_207" data-name="Path 207" d="M39.267,309.522H1V260H30.263" transform="translate(-1 -250.996)" fill="none" stroke="#000" stroke-linejoin="round" stroke-width="2"/>
        </g>
        <path id="Path_208" data-name="Path 208" d="M32,329.533V253H45.506v69.78" transform="translate(37.78 -253)" fill="none" stroke="#000" stroke-linejoin="round" stroke-width="2"/>
        <path id="Path_209" data-name="Path 209" d="M32,314.259v27.012H45.506V294" transform="translate(37.78 -201.71)" fill="none" stroke="#000" stroke-linejoin="round" stroke-width="2"/>
      </g>
      <line id="Line_111" data-name="Line 111" x2="13" transform="translate(70 130.561)" fill="none" stroke="#000" stroke-linejoin="round" stroke-width="2"/>
      <line id="Line_112" data-name="Line 112" x2="5" transform="translate(36 15.561)" fill="none" stroke="#000" stroke-linejoin="round" stroke-width="2"/>
      <line id="Line_113" data-name="Line 113" x2="18" transform="translate(45 15.561)" fill="none" stroke="#000" stroke-linejoin="round" stroke-width="2"/>
      <g id="Group_228" data-name="Group 228" transform="translate(36.016 74.282)">
        <line id="Line_114" data-name="Line 114" x1="14" transform="translate(-0.016 15.278)" fill="none" stroke="#000" stroke-linejoin="round" stroke-width="2"/>
        <line id="Line_115" data-name="Line 115" x1="9" y2="9" transform="translate(4.984 22.278)" fill="none" stroke="#000" stroke-linejoin="round" stroke-width="2"/>
        <line id="Line_116" data-name="Line 116" x1="9" y1="9" transform="translate(4.984 0.278)" fill="none" stroke="#000" stroke-linejoin="round" stroke-width="2"/>
      </g>
      <g id="Group_229" data-name="Group 229" transform="translate(94.541 20.259)">
        <line id="Line_117" data-name="Line 117" y2="13" transform="translate(6.459 0.302)" fill="none" stroke="#000" stroke-linejoin="round" stroke-width="2"/>
        <line id="Line_118" data-name="Line 118" x1="13" transform="translate(0.459 6.302)" fill="none" stroke="#000" stroke-linejoin="round" stroke-width="2"/>
      </g>
      <g id="Group_230" data-name="Group 230" transform="translate(117.051 42.769)">
        <line id="Line_119" data-name="Line 119" y2="14" transform="translate(6.949 -0.208)" fill="none" stroke="#000" stroke-linejoin="round" stroke-width="2"/>
        <line id="Line_120" data-name="Line 120" x1="14" transform="translate(-0.051 6.792)" fill="none" stroke="#000" stroke-linejoin="round" stroke-width="2"/>
      </g>
      <g id="Group_231" data-name="Group 231" transform="translate(9.004 72.031)">
        <line id="Line_121" data-name="Line 121" y2="14" transform="translate(6.996 -0.471)" fill="none" stroke="#000" stroke-linejoin="round" stroke-width="2"/>
        <line id="Line_122" data-name="Line 122" x1="14" transform="translate(-0.004 6.529)" fill="none" stroke="#000" stroke-linejoin="round" stroke-width="2"/>
      </g>
      <line id="Line_123" data-name="Line 123" y2="11" transform="translate(101 38.561)" fill="none" stroke="#000" stroke-linejoin="round" stroke-width="2"/>
      <line id="Line_124" data-name="Line 124" y2="5" transform="translate(101 53.561)" fill="none" stroke="#000" stroke-linejoin="round" stroke-width="2"/>
    </g>
  </g>
</svg>
